<svg class="vector fh" width="300px" height="300px" xmlns="http://www.w3.org/2000/svg" baseProfile="full" version="1.1" style="width: 300px; height: 300px; stroke: rgb(0, 0, 0); stroke-width: 12; fill: black; stroke-linecap: round;"><g transform="translate(0,0)"><path d="M150,30 A-90,105 0 0,0 60,135  A-45,75 0 0,1 15,210  L285,210  A-45,-75 0 0,1 240,135  A-90,-105 0 0,0 150,30  M150,165 A-45,45 0 0,0 105,210  A45,45 0 0,0 150,255  A45,-45 0 0,0 195,210  A-45,-45 0 0,0 150,165  M150,15 A-15,15 0 0,0 135,30 A15,15 0 0,0 150,45  A15,-15 0 0,0 165,30 A-15,-15 0 0,0 150,15  "></path></g><g><path d="M0,0" transform=""></path></g></svg>