<svg class="vector fh" width="300px" height="300px" xmlns="http://www.w3.org/2000/svg" baseProfile="full" version="1.1" style="width: 300px; height: 300px; stroke: rgb(0, 0, 0); stroke-width: 12; fill: black; stroke-linecap: square;"><g transform="translate(0,0)"><path d="M150,105 A-45,45 0 0,0 105,150  A45,45 0 0,0 150,195  A45,-45 0 0,0 195,150  A-45,-45 0 0,0 150,105  L150,75  A75,75 0 0,1 225,150  A-75,75 0 0,1 150,225  A-75,-75 0 0,1 75,150  A75,-75 0 0,1 150,75  L150,105  M135,75 L135,60  L165,60  L165,75  L135,75  M225,135 L225,165  L240,165  L240,135  L225,135  M135,225 L165,225  L165,240  L135,240  L135,225  M60,135 L75,135  M60,135 L60,165  L75,165  L75,135  M210,75 L225,90  L210,105  L195,90  L210,75  M210,225 L225,210  M210,225 L195,210  L210,195  L225,210  M90,225 L75,210  L90,195  L105,210  L90,225  M90,105 L75,90  L90,75  L105,90  L90,105  "></path></g><g><path d="M0,0" transform=""></path></g></svg>